<mxfile host="app.diagrams.net" modified="2023-05-14T13:46:59.975Z" agent="Mozilla/5.0 (Macintosh; Intel Mac OS X 10_15_7) AppleWebKit/537.36 (KHTML, like Gecko) Chrome/110.0.0.0 Safari/537.36" version="21.3.0" etag="vXvhS4RDtBp0K-WBJWuf" type="github">
  <diagram name="第 1 页" id="ZcWTh2QG41lhhDC7PhZD">
    <mxGraphModel>
      <root>
        <mxCell id="0" />
        <mxCell id="1" parent="0" />
      </root>
    </mxGraphModel>
  </diagram>
</mxfile>
